<svg xmlns="http://www.w3.org/2000/svg" viewBox="0 0 1000 800">  <path fill="#e0ffe0" opacity="0.15" transform="scale(0.1) translate(0, 0)" d="m448.11,372.02c.43-2.16.79-4.35,1.07-6.56l253.71,40.36-1.04,6.56-253.73-40.36Zm240.37,93.72l2.17-6.68-244.41-79.27c-.65,2.26-1.38,4.49-2.19,6.68l244.43,79.28Zm-25.42,47.6c1.77-1.86,3.5-3.75,5.2-5.67l-227.03-114.42c-1.03,2.25-2.16,4.45-3.36,6.6l225.18,113.49Zm-41.85,34.74c2.33-1.51,4.62-3.06,6.89-4.66l-193.82-137.66c-1.43,2.17-2.94,4.29-4.54,6.33l191.46,135.98Zm-201.38-125.11l154.24,148.6c2.83-1.03,5.63-2.11,8.41-3.25l-156.93-151.2c-1.82,2.03-3.73,3.98-5.71,5.84Zm104.79,160.57c3.24-.41,6.46-.91,9.67-1.46l-119.08-155.03c-2.2,1.81-4.48,3.53-6.83,5.14l116.24,151.34Zm-48.78,1.09c3.49.28,7.01.49,10.54.61l-82.84-149.95c-2.55,1.53-5.17,2.95-7.86,4.24l80.16,145.1Zm-45.49-8.33c3.63,1.05,7.29,2.01,10.98,2.88l-50.53-137.49c-2.86,1.18-5.79,2.22-8.78,3.12l48.32,131.48Zm-40.35-15.91c3.59,1.82,7.23,3.55,10.92,5.19l-23.83-119.41c-3.12.76-6.3,1.36-9.53,1.81l22.43,112.42Zm-37.73-111.55l3.57,90.3c3.39,2.54,6.85,4.98,10.38,7.34l-3.87-97.93c-2.6.21-5.22.33-7.88.33-.73,0-1.47-.01-2.2-.03Zm31.06-299.07L400.79,3.05l-10.73-1.28-18.43,154.88c3.69-2.32,7.46-4.54,11.29-6.65.14-.08.28-.16.42-.24Zm31.69-14.42c1.88-.69,3.78-1.35,5.69-1.99.25-.08.49-.18.74-.26l33.39-118.39-10.8-3.05-35.6,126.22c.23-.09.46-.18.69-.27,1.73-.69,3.47-1.36,5.22-2.01.22-.08.45-.17.67-.25Zm49.83-12.2l40.65-88.91-10.58-4.84-43.88,95.97c.21-.04.42-.08.63-.12.57-.11,1.14-.21,1.71-.32,3.79-.69,7.61-1.3,11.47-1.79Zm40.42-1.7c.87.04,1.73.08,2.59.13,1.39.07,2.77.16,4.15.26l39.93-60.93-10.08-6.6-43.87,66.95c2.07.03,4.13.08,6.19.16.36.01.72.03,1.08.04Zm88.24-27.47l-9.29-8.31-37.05,41.44c3.46.8,6.88,1.68,10.28,2.63,1.09.3,2.17.62,3.25.93l32.81-36.69Zm8.52,53.37c2.04,1.06,4.06,2.16,6.07,3.28l21.5-17.83-8.22-9.91-25.67,21.28c.44.21.87.44,1.31.66,1.56.76,3.11,1.54,4.65,2.34.12.06.24.12.36.18Zm49.24,34.41l8.33-5.02-6.86-11.38-12.09,7.29c3.36,2.71,6.64,5.52,9.84,8.42.26.23.53.46.79.69Zm-11.83,353.19l12.55,7.56,8.35-13.86-7.97-4.81c-4.17,3.85-8.49,7.56-12.93,11.1Zm-45.59,28.39l26.34,21.84,10.59-12.78-20.95-17.37c-5.2,2.97-10.54,5.74-15.98,8.31Zm-49.23,16.74l37.91,42.4,12.68-11.34-32.09-35.9c-6.06,1.86-12.23,3.47-18.49,4.84Zm-49.68,5.35s-.09,0-.13,0l44.81,68.38,14.57-9.55-39.13-59.71c-6.63.57-13.34.88-20.13.88Zm-47.65-4.91l44.8,98,16.22-7.42-39.86-87.19c-7.16-.81-14.22-1.94-21.16-3.39Zm-42.98-13.46l36.35,128.87,17.57-4.95-32.76-116.14c-7.21-2.26-14.27-4.86-21.16-7.78Zm-36.97-19.84l18.81,158.1,18.53-2.21-17.13-143.99c-6.95-3.64-13.7-7.61-20.21-11.91Zm-102.61-226.42L18.29,240.85l-2.19,6.74,246.45,79.93c.64-2.28,1.37-4.53,2.17-6.75Zm-3.93,14.14L4.92,294.22l-1.05,6.59,255.87,40.7c.28-2.22.63-4.42,1.06-6.59Zm445.97,7.43v21.91h-257.45c.4-3.57.62-7.19.62-10.87s-.22-7.42-.64-11.04h0c-.59-5.14-1.59-10.15-2.96-15.01-1.34-4.73-3.04-9.31-5.05-13.71-2.01-4.37-4.33-8.57-6.95-12.55-2.63-4-5.54-7.79-8.72-11.34-3.19-3.56-6.64-6.88-10.32-9.93h0c-3.67-3.04-7.57-5.8-11.68-8.27-4.06-2.44-8.31-4.59-12.73-6.41-4.36-1.8-8.88-3.28-13.53-4.43-4.61-1.13-9.35-1.93-14.19-2.37-2.86-.26-5.76-.4-8.69-.4-2.09,0-4.17.07-6.22.21-5.17.33-10.22,1.07-15.13,2.19-4.77,1.09-9.4,2.54-13.87,4.31-4.42,1.75-8.67,3.83-12.74,6.2-4.07,2.37-7.95,5.03-11.61,7.96h0c-3.67,2.94-7.13,6.14-10.33,9.58h0c-3.2,3.44-6.15,7.11-8.81,10.99h0c-2.65,3.85-5.02,7.9-7.09,12.13-1.21,2.46-2.31,4.99-3.3,7.57h0c.26-1.77.54-3.54.84-5.29,0,0,0,0,0,0,0,0,0,0,0,0L36,197.75l3.38-6.7,228.28,115.05s0,.03,0,.05c.53-2.57,1.12-5.12,1.73-7.65-.02.06-.05.12-.07.19L62.86,152.05l4.58-6.45,204.01,144.9s0,0,0,.01c.75-2.69,1.56-5.35,2.41-8L95.99,111.14l5.78-6,175.06,168.66c1.08-2.96,2.22-5.9,3.42-8.81L134.77,75.6l6.94-5.32,142.53,185.57c1.54-3.33,3.16-6.62,4.85-9.86L178.65,46.07l8.01-4.43,107.67,194.9c2.21-3.8,4.53-7.52,6.95-11.18L226.99,23.2l8.98-3.3,72,195.91c3.22-4.37,6.59-8.63,10.1-12.76L279.09,7.74l9.79-1.95,37.51,187.99c4.71-4.97,9.63-9.74,14.75-14.28L334.07.41l10.39-.41,6.77,171.06c-3.38,2.67-6.68,5.43-9.9,8.27,0,0,0,0,0,0,0,0,0,0,0,0l7.54,63.36,2.85-72.05c5.98-4.7,12.2-9.1,18.63-13.2l-3.2,80.92,17.86-89.52c6.75-3.63,13.69-6.94,20.82-9.91l-19.33,96.88,38.13-103.76c7.27-2.31,14.69-4.27,22.25-5.86l-41.25,112.24,64.01-115.86c7.47-.81,15.06-1.26,22.73-1.35l-68.42,123.85,94.26-122.72c7.51.75,14.92,1.86,22.2,3.31l-99.29,129.27,126.68-122.05c7.02,2.32,13.9,4.97,20.61,7.92l-131.57,126.76,158.62-112.66c6.22,3.78,12.24,7.85,18.05,12.19l-162.95,115.74,187.59-94.54c5.12,5.06,10,10.36,14.63,15.88l-191.41,96.47,204.94-66.47,6.52,20.12-204.82,66.43,212.67-33.83,3.38,21.27-215.02,34.21h217.72Zm-429.91-62.61l-1.52-1.7c-.04.11-.08.23-.12.34l1.64,1.36Zm10.31-12.75l-4.71-7.19c-.19.43-.38.86-.56,1.29,0,0,0,0,0,0,0,0,0,0,0,0l5.27,5.9Zm12.46-11.21l-7.25-15.85s.02-.04.03-.06c-.01.02-.02.04-.03.06-.48.86-.96,1.73-1.44,2.6,0,0,0,0,0,0,0,0,0,0,0,0l8.68,13.25Zm14.68-8.66l-8.14-28.85c-1.03,1.44-2.05,2.9-3.06,4.37l11.19,24.49Zm16.68-4.73l-5.65-47.5c-2.01,2.15-3.97,4.33-5.9,6.55l11.55,40.95Zm7.04,281.91l9.01-75.73c-3.51-.27-6.97-.74-10.37-1.38l-8.08,67.93c-4.05-4.16-7.94-8.48-11.67-12.93l15.75-55.84c-3.55-.83-7.02-1.86-10.4-3.07l-13.65,48.41c-2.55-3.42-5.01-6.92-7.36-10.48,0,0,0,0,0,0l17.88-39.11c-3.49-1.39-6.89-2.98-10.16-4.77l-14.82,32.43c-1.56-2.68-3.07-5.4-4.52-8.15l16.84-25.69c-3.35-1.96-6.57-4.11-9.65-6.45l-13.13,20.04c-.92-2.02-1.82-4.06-2.68-6.11l13.83-15.47c-3.12-2.5-6.08-5.2-8.87-8.07l-9.82,10.99c-.51-1.44-1.01-2.89-1.5-4.35l9.86-8.18c-2.8-3.02-5.42-6.22-7.82-9.59l-5.9,4.89c-.26-.95-.51-1.91-.75-2.86l5.68-3.42c-2.4-3.5-4.57-7.16-6.5-10.97l-2.12,1.28c-.11-.55-.21-1.1-.31-1.66l1.86-.77c-1.18-2.42-2.26-4.9-3.24-7.44h0c-1.04-2.68-1.96-5.42-2.75-8.21h0c-1.35-4.74-2.34-9.64-2.94-14.65-.45-3.78-.69-7.62-.69-11.52s.25-7.86.71-11.69H0v23.21h209.61L2.61,397.85l3.58,22.52,204.76-32.57L13.74,451.75l6.91,21.29,197.38-64.02-185.29,93.38,9.89,19.62,186.82-94.16-170.55,121.13,12.48,17.58,172.57-122.57-152.42,146.85,14.67,15.23,154.41-148.77-130.6,170.04,16.44,12.63,132.38-172.35-105.09,190.22,17.79,9.83,106.1-192.05s0,0,0,0c.05.07.09.14.14.22,0,0,0,0,0-.01l-75.64,205.81,18.68,6.87,70.84-192.76c.82,1.05,1.65,2.1,2.49,3.14,0,0,0,0,0,0,0,0,0,0,0,0l-39.72,199.07,19.11,3.81,36.86-184.75c2.14,2.15,4.32,4.26,6.54,6.32l-7.23,182.7,19.06.75,6.64-167.97c-6.04-4.55-11.85-9.41-17.42-14.52Z" />  <path fill="#e0ffe0" opacity="0.12" transform="scale(0.08) rotate(45) translate(1250, 625)" d="m448.11,372.02c.43-2.16.79-4.35,1.07-6.56l253.71,40.36-1.04,6.56-253.73-40.36Zm240.37,93.72l2.17-6.68-244.41-79.27c-.65,2.26-1.38,4.49-2.19,6.68l244.43,79.28Zm-25.42,47.6c1.77-1.86,3.5-3.75,5.2-5.67l-227.03-114.42c-1.03,2.25-2.16,4.45-3.36,6.6l225.18,113.49Zm-41.85,34.74c2.33-1.51,4.62-3.06,6.89-4.66l-193.82-137.66c-1.43,2.17-2.94,4.29-4.54,6.33l191.46,135.98Zm-201.38-125.11l154.24,148.6c2.83-1.03,5.63-2.11,8.41-3.25l-156.93-151.2c-1.82,2.03-3.73,3.98-5.71,5.84Zm104.79,160.57c3.24-.41,6.46-.91,9.67-1.46l-119.08-155.03c-2.2,1.81-4.48,3.53-6.83,5.14l116.24,151.34Zm-48.78,1.09c3.49.28,7.01.49,10.54.61l-82.84-149.95c-2.55,1.53-5.17,2.95-7.86,4.24l80.16,145.1Zm-45.49-8.33c3.63,1.05,7.29,2.01,10.98,2.88l-50.53-137.49c-2.86,1.18-5.79,2.22-8.78,3.12l48.32,131.48Zm-40.35-15.91c3.59,1.82,7.23,3.55,10.92,5.19l-23.83-119.41c-3.12.76-6.3,1.36-9.53,1.81l22.43,112.42Zm-37.73-111.55l3.57,90.3c3.39,2.54,6.85,4.98,10.38,7.34l-3.87-97.93c-2.6.21-5.22.33-7.88.33-.73,0-1.47-.01-2.2-.03Zm31.06-299.07L400.79,3.05l-10.73-1.28-18.43,154.88c3.69-2.32,7.46-4.54,11.29-6.65.14-.08.28-.16.42-.24Zm31.69-14.42c1.88-.69,3.78-1.35,5.69-1.99.25-.08.49-.18.74-.26l33.39-118.39-10.8-3.05-35.6,126.22c.23-.09.46-.18.69-.27,1.73-.69,3.47-1.36,5.22-2.01.22-.08.45-.17.67-.25Zm49.83-12.2l40.65-88.91-10.58-4.84-43.88,95.97c.21-.04.42-.08.63-.12.57-.11,1.14-.21,1.71-.32,3.79-.69,7.61-1.3,11.47-1.79Zm40.42-1.7c.87.04,1.73.08,2.59.13,1.39.07,2.77.16,4.15.26l39.93-60.93-10.08-6.6-43.87,66.95c2.07.03,4.13.08,6.19.16.36.01.72.03,1.08.04Zm88.24-27.47l-9.29-8.31-37.05,41.44c3.46.8,6.88,1.68,10.28,2.63,1.09.3,2.17.62,3.25.93l32.81-36.69Zm8.52,53.37c2.04,1.06,4.06,2.16,6.07,3.28l21.5-17.83-8.22-9.91-25.67,21.28c.44.21.87.44,1.31.66,1.56.76,3.11,1.54,4.65,2.34.12.06.24.12.36.18Zm49.24,34.41l8.33-5.02-6.86-11.38-12.09,7.29c3.36,2.71,6.64,5.52,9.84,8.42.26.23.53.46.79.69Zm-11.83,353.19l12.55,7.56,8.35-13.86-7.97-4.81c-4.17,3.85-8.49,7.56-12.93,11.1Zm-45.59,28.39l26.34,21.84,10.59-12.78-20.95-17.37c-5.2,2.97-10.54,5.74-15.98,8.31Zm-49.23,16.74l37.91,42.4,12.68-11.34-32.09-35.9c-6.06,1.86-12.23,3.47-18.49,4.84Zm-49.68,5.35s-.09,0-.13,0l44.81,68.38,14.57-9.55-39.13-59.71c-6.63.57-13.34.88-20.13.88Zm-47.65-4.91l44.8,98,16.22-7.42-39.86-87.19c-7.16-.81-14.22-1.94-21.16-3.39Zm-42.98-13.46l36.35,128.87,17.57-4.95-32.76-116.14c-7.21-2.26-14.27-4.86-21.16-7.78Zm-36.97-19.84l18.81,158.1,18.53-2.21-17.13-143.99c-6.95-3.64-13.7-7.61-20.21-11.91Zm-102.61-226.42L18.29,240.85l-2.19,6.74,246.45,79.93c.64-2.28,1.37-4.53,2.17-6.75Zm-3.93,14.14L4.92,294.22l-1.05,6.59,255.87,40.7c.28-2.22.63-4.42,1.06-6.59Zm445.97,7.43v21.91h-257.45c.4-3.57.62-7.19.62-10.87s-.22-7.42-.64-11.04h0c-.59-5.14-1.59-10.15-2.96-15.01-1.34-4.73-3.04-9.31-5.05-13.71-2.01-4.37-4.33-8.57-6.95-12.55-2.63-4-5.54-7.79-8.72-11.34-3.19-3.56-6.64-6.88-10.32-9.93h0c-3.67-3.04-7.57-5.8-11.68-8.27-4.06-2.44-8.31-4.59-12.73-6.41-4.36-1.8-8.88-3.28-13.53-4.43-4.61-1.13-9.35-1.93-14.19-2.37-2.86-.26-5.76-.4-8.69-.4-2.09,0-4.17.07-6.22.21-5.17.33-10.22,1.07-15.13,2.19-4.77,1.09-9.4,2.54-13.87,4.31-4.42,1.75-8.67,3.83-12.74,6.2-4.07,2.37-7.95,5.03-11.61,7.96h0c-3.67,2.94-7.13,6.14-10.33,9.58h0c-3.2,3.44-6.15,7.11-8.81,10.99h0c-2.65,3.85-5.02,7.9-7.09,12.13-1.21,2.46-2.31,4.99-3.3,7.57h0c.26-1.77.54-3.54.84-5.29,0,0,0,0,0,0,0,0,0,0,0,0L36,197.75l3.38-6.7,228.28,115.05s0,.03,0,.05c.53-2.57,1.12-5.12,1.73-7.65-.02.06-.05.12-.07.19L62.86,152.05l4.58-6.45,204.01,144.9s0,0,0,.01c.75-2.69,1.56-5.35,2.41-8L95.99,111.14l5.78-6,175.06,168.66c1.08-2.96,2.22-5.9,3.42-8.81L134.77,75.6l6.94-5.32,142.53,185.57c1.54-3.33,3.16-6.62,4.85-9.86L178.65,46.07l8.01-4.43,107.67,194.9c2.21-3.8,4.53-7.52,6.95-11.18L226.99,23.2l8.98-3.3,72,195.91c3.22-4.37,6.59-8.63,10.1-12.76L279.09,7.74l9.79-1.95,37.51,187.99c4.71-4.97,9.63-9.74,14.75-14.28L334.07.41l10.39-.41,6.77,171.06c-3.38,2.67-6.68,5.43-9.9,8.27,0,0,0,0,0,0,0,0,0,0,0,0l7.54,63.36,2.85-72.05c5.98-4.7,12.2-9.1,18.63-13.2l-3.2,80.92,17.86-89.52c6.75-3.63,13.69-6.94,20.82-9.91l-19.33,96.88,38.13-103.76c7.27-2.31,14.69-4.27,22.25-5.86l-41.25,112.24,64.01-115.86c7.47-.81,15.06-1.26,22.73-1.35l-68.42,123.85,94.26-122.72c7.51.75,14.92,1.86,22.2,3.31l-99.29,129.27,126.68-122.05c7.02,2.32,13.9,4.97,20.61,7.92l-131.57,126.76,158.62-112.66c6.22,3.78,12.24,7.85,18.05,12.19l-162.95,115.74,187.59-94.54c5.12,5.06,10,10.36,14.63,15.88l-191.41,96.47,204.94-66.47,6.52,20.12-204.82,66.43,212.67-33.83,3.38,21.27-215.02,34.21h217.72Zm-429.91-62.61l-1.52-1.7c-.04.11-.08.23-.12.34l1.64,1.36Zm10.31-12.75l-4.71-7.19c-.19.43-.38.86-.56,1.29,0,0,0,0,0,0,0,0,0,0,0,0l5.27,5.9Zm12.46-11.21l-7.25-15.85s.02-.04.03-.06c-.01.02-.02.04-.03.06-.48.86-.96,1.73-1.44,2.6,0,0,0,0,0,0,0,0,0,0,0,0l8.68,13.25Zm14.68-8.66l-8.14-28.85c-1.03,1.44-2.05,2.9-3.06,4.37l11.19,24.49Zm16.68-4.73l-5.65-47.5c-2.01,2.15-3.97,4.33-5.9,6.55l11.55,40.95Zm7.04,281.91l9.01-75.73c-3.51-.27-6.97-.74-10.37-1.38l-8.08,67.93c-4.05-4.16-7.94-8.48-11.67-12.93l15.75-55.84c-3.55-.83-7.02-1.86-10.4-3.07l-13.65,48.41c-2.55-3.42-5.01-6.92-7.36-10.48,0,0,0,0,0,0l17.88-39.11c-3.49-1.39-6.89-2.98-10.16-4.77l-14.82,32.43c-1.56-2.68-3.07-5.4-4.52-8.15l16.84-25.69c-3.35-1.96-6.57-4.11-9.65-6.45l-13.13,20.04c-.92-2.02-1.82-4.06-2.68-6.11l13.83-15.47c-3.12-2.5-6.08-5.2-8.87-8.07l-9.82,10.99c-.51-1.44-1.01-2.89-1.5-4.35l9.86-8.18c-2.8-3.02-5.42-6.22-7.82-9.59l-5.9,4.89c-.26-.95-.51-1.91-.75-2.86l5.68-3.42c-2.4-3.5-4.57-7.16-6.5-10.97l-2.12,1.28c-.11-.55-.21-1.1-.31-1.66l1.86-.77c-1.18-2.42-2.26-4.9-3.24-7.44h0c-1.04-2.68-1.96-5.42-2.75-8.21h0c-1.35-4.74-2.34-9.64-2.94-14.65-.45-3.78-.69-7.62-.69-11.52s.25-7.86.71-11.69H0v23.21h209.61L2.61,397.85l3.58,22.52,204.76-32.57L13.74,451.75l6.91,21.29,197.38-64.02-185.29,93.38,9.89,19.62,186.82-94.16-170.55,121.13,12.48,17.58,172.57-122.57-152.42,146.85,14.67,15.23,154.41-148.77-130.6,170.04,16.44,12.63,132.38-172.35-105.09,190.22,17.79,9.83,106.1-192.05s0,0,0,0c.05.07.09.14.14.22,0,0,0,0,0-.01l-75.64,205.81,18.68,6.87,70.84-192.76c.82,1.05,1.65,2.1,2.49,3.14,0,0,0,0,0,0,0,0,0,0,0,0l-39.72,199.07,19.11,3.81,36.86-184.75c2.14,2.15,4.32,4.26,6.54,6.32l-7.23,182.7,19.06.75,6.64-167.97c-6.04-4.55-11.85-9.41-17.42-14.52Z" />  <path fill="#e0ffe0" opacity="0.12" transform="scale(0.08) rotate(45) translate(1250, 625)" d="m448.11,372.02c.43-2.16.79-4.35,1.07-6.56l253.71,40.36-1.04,6.56-253.73-40.36Zm240.37,93.72l2.17-6.68-244.41-79.27c-.65,2.26-1.38,4.49-2.19,6.68l244.43,79.28Zm-25.42,47.6c1.77-1.86,3.5-3.75,5.2-5.67l-227.03-114.42c-1.03,2.25-2.16,4.45-3.36,6.6l225.18,113.49Zm-41.85,34.74c2.33-1.51,4.62-3.06,6.89-4.66l-193.82-137.66c-1.43,2.17-2.94,4.29-4.54,6.33l191.46,135.98Zm-201.38-125.11l154.24,148.6c2.83-1.03,5.63-2.11,8.41-3.25l-156.93-151.2c-1.82,2.03-3.73,3.98-5.71,5.84Zm104.79,160.57c3.24-.41,6.46-.91,9.67-1.46l-119.08-155.03c-2.2,1.81-4.48,3.53-6.83,5.14l116.24,151.34Zm-48.78,1.09c3.49.28,7.01.49,10.54.61l-82.84-149.95c-2.55,1.53-5.17,2.95-7.86,4.24l80.16,145.1Zm-45.49-8.33c3.63,1.05,7.29,2.01,10.98,2.88l-50.53-137.49c-2.86,1.18-5.79,2.22-8.78,3.12l48.32,131.48Zm-40.35-15.91c3.59,1.82,7.23,3.55,10.92,5.19l-23.83-119.41c-3.12.76-6.3,1.36-9.53,1.81l22.43,112.42Zm-37.73-111.55l3.57,90.3c3.39,2.54,6.85,4.98,10.38,7.34l-3.87-97.93c-2.6.21-5.22.33-7.88.33-.73,0-1.47-.01-2.2-.03Zm31.06-299.07L400.79,3.05l-10.73-1.28-18.43,154.88c3.69-2.32,7.46-4.54,11.29-6.65.14-.08.28-.16.42-.24Zm31.69-14.42c1.88-.69,3.78-1.35,5.69-1.99.25-.08.49-.18.74-.26l33.39-118.39-10.8-3.05-35.6,126.22c.23-.09.46-.18.69-.27,1.73-.69,3.47-1.36,5.22-2.01.22-.08.45-.17.67-.25Zm49.83-12.2l40.65-88.91-10.58-4.84-43.88,95.97c.21-.04.42-.08.63-.12.57-.11,1.14-.21,1.71-.32,3.79-.69,7.61-1.3,11.47-1.79Zm40.42-1.7c.87.04,1.73.08,2.59.13,1.39.07,2.77.16,4.15.26l39.93-60.93-10.08-6.6-43.87,66.95c2.07.03,4.13.08,6.19.16.36.01.72.03,1.08.04Zm88.24-27.47l-9.29-8.31-37.05,41.44c3.46.8,6.88,1.68,10.28,2.63,1.09.3,2.17.62,3.25.93l32.81-36.69Zm8.52,53.37c2.04,1.06,4.06,2.16,6.07,3.28l21.5-17.83-8.22-9.91-25.67,21.28c.44.21.87.44,1.31.66,1.56.76,3.11,1.54,4.65,2.34.12.06.24.12.36.18Zm49.24,34.41l8.33-5.02-6.86-11.38-12.09,7.29c3.36,2.71,6.64,5.52,9.84,8.42.26.23.53.46.79.69Zm-11.83,353.19l12.55,7.56,8.35-13.86-7.97-4.81c-4.17,3.85-8.49,7.56-12.93,11.1Zm-45.59,28.39l26.34,21.84,10.59-12.78-20.95-17.37c-5.2,2.97-10.54,5.74-15.98,8.31Zm-49.23,16.74l37.91,42.4,12.68-11.34-32.09-35.9c-6.06,1.86-12.23,3.47-18.49,4.84Zm-49.68,5.35s-.09,0-.13,0l44.81,68.38,14.57-9.55-39.13-59.71c-6.63.57-13.34.88-20.13.88Zm-47.65-4.91l44.8,98,16.22-7.42-39.86-87.19c-7.16-.81-14.22-1.94-21.16-3.39Zm-42.98-13.46l36.35,128.87,17.57-4.95-32.76-116.14c-7.21-2.26-14.27-4.86-21.16-7.78Zm-36.97-19.84l18.81,158.1,18.53-2.21-17.13-143.99c-6.95-3.64-13.7-7.61-20.21-11.91Zm-102.61-226.42L18.29,240.85l-2.19,6.74,246.45,79.93c.64-2.28,1.37-4.53,2.17-6.75Zm-3.93,14.14L4.92,294.22l-1.05,6.59,255.87,40.7c.28-2.22.63-4.42,1.06-6.59Zm445.97,7.43v21.91h-257.45c.4-3.57.62-7.19.62-10.87s-.22-7.42-.64-11.04h0c-.59-5.14-1.59-10.15-2.96-15.01-1.34-4.73-3.04-9.31-5.05-13.71-2.01-4.37-4.33-8.57-6.95-12.55-2.63-4-5.54-7.79-8.72-11.34-3.19-3.56-6.64-6.88-10.32-9.93h0c-3.67-3.04-7.57-5.8-11.68-8.27-4.06-2.44-8.31-4.59-12.73-6.41-4.36-1.8-8.88-3.28-13.53-4.43-4.61-1.13-9.35-1.93-14.19-2.37-2.86-.26-5.76-.4-8.69-.4-2.09,0-4.17.07-6.22.21-5.17.33-10.22,1.07-15.13,2.19-4.77,1.09-9.4,2.54-13.87,4.31-4.42,1.75-8.67,3.83-12.74,6.2-4.07,2.37-7.95,5.03-11.61,7.96h0c-3.67,2.94-7.13,6.14-10.33,9.58h0c-3.2,3.44-6.15,7.11-8.81,10.99h0c-2.65,3.85-5.02,7.9-7.09,12.13-1.21,2.46-2.31,4.99-3.3,7.57h0c.26-1.77.54-3.54.84-5.29,0,0,0,0,0,0,0,0,0,0,0,0L36,197.75l3.38-6.7,228.28,115.05s0,.03,0,.05c.53-2.57,1.12-5.12,1.73-7.65-.02.06-.05.12-.07.19L62.86,152.05l4.58-6.45,204.01,144.9s0,0,0,.01c.75-2.69,1.56-5.35,2.41-8L95.99,111.14l5.78-6,175.06,168.66c1.08-2.96,2.22-5.9,3.42-8.81L134.77,75.6l6.94-5.32,142.53,185.57c1.54-3.33,3.16-6.62,4.85-9.86L178.65,46.07l8.01-4.43,107.67,194.9c2.21-3.8,4.53-7.52,6.95-11.18L226.99,23.2l8.98-3.3,72,195.91c3.22-4.37,6.59-8.63,10.1-12.76L279.09,7.74l9.79-1.95,37.51,187.99c4.71-4.97,9.63-9.74,14.75-14.28L334.07.41l10.39-.41,6.77,171.06c-3.38,2.67-6.68,5.43-9.9,8.27,0,0,0,0,0,0,0,0,0,0,0,0l7.54,63.36,2.85-72.05c5.98-4.7,12.2-9.1,18.63-13.2l-3.2,80.92,17.86-89.52c6.75-3.63,13.69-6.94,20.82-9.91l-19.33,96.88,38.13-103.76c7.27-2.31,14.69-4.27,22.25-5.86l-41.25,112.24,64.01-115.86c7.47-.81,15.06-1.26,22.73-1.35l-68.42,123.85,94.26-122.72c7.51.75,14.92,1.86,22.2,3.31l-99.29,129.27,126.68-122.05c7.02,2.32,13.9,4.97,20.61,7.92l-131.57,126.76,158.62-112.66c6.22,3.78,12.24,7.85,18.05,12.19l-162.95,115.74,187.59-94.54c5.12,5.06,10,10.36,14.63,15.88l-191.41,96.47,204.94-66.47,6.52,20.12-204.82,66.43,212.67-33.83,3.38,21.27-215.02,34.21h217.72Zm-429.91-62.61l-1.52-1.7c-.04.11-.08.23-.12.34l1.64,1.36Zm10.31-12.75l-4.71-7.19c-.19.43-.38.86-.56,1.29,0,0,0,0,0,0,0,0,0,0,0,0l5.27,5.9Zm12.46-11.21l-7.25-15.85s.02-.04.03-.06c-.01.02-.02.04-.03.06-.48.86-.96,1.73-1.44,2.6,0,0,0,0,0,0,0,0,0,0,0,0l8.68,13.25Zm14.68-8.66l-8.14-28.85c-1.03,1.44-2.05,2.9-3.06,4.37l11.19,24.49Zm16.68-4.73l-5.65-47.5c-2.01,2.15-3.97,4.33-5.9,6.55l11.55,40.95Zm7.04,281.91l9.01-75.73c-3.51-.27-6.97-.74-10.37-1.38l-8.08,67.93c-4.05-4.16-7.94-8.48-11.67-12.93l15.75-55.84c-3.55-.83-7.02-1.86-10.4-3.07l-13.65,48.41c-2.55-3.42-5.01-6.92-7.36-10.48,0,0,0,0,0,0l17.88-39.11c-3.49-1.39-6.89-2.98-10.16-4.77l-14.82,32.43c-1.56-2.68-3.07-5.4-4.52-8.15l16.84-25.69c-3.35-1.96-6.57-4.11-9.65-6.45l-13.13,20.04c-.92-2.02-1.82-4.06-2.68-6.11l13.83-15.47c-3.12-2.5-6.08-5.2-8.87-8.07l-9.82,10.99c-.51-1.44-1.01-2.89-1.5-4.35l9.86-8.18c-2.8-3.02-5.42-6.22-7.82-9.59l-5.9,4.89c-.26-.95-.51-1.91-.75-2.86l5.68-3.42c-2.4-3.5-4.57-7.16-6.5-10.97l-2.12,1.28c-.11-.55-.21-1.1-.31-1.66l1.86-.77c-1.18-2.42-2.26-4.9-3.24-7.44h0c-1.04-2.68-1.96-5.42-2.75-8.21h0c-1.35-4.74-2.34-9.64-2.94-14.65-.45-3.78-.69-7.62-.69-11.52s.25-7.86.71-11.69H0v23.21h209.61L2.61,397.85l3.58,22.52,204.76-32.57L13.74,451.75l6.91,21.29,197.38-64.02-185.29,93.38,9.89,19.62,186.82-94.16-170.55,121.13,12.48,17.58,172.57-122.57-152.42,146.85,14.67,15.23,154.41-148.77-130.6,170.04,16.44,12.63,132.38-172.35-105.09,190.22,17.79,9.83,106.1-192.05s0,0,0,0c.05.07.09.14.14.22,0,0,0,0,0-.01l-75.64,205.81,18.68,6.87,70.84-192.76c.82,1.05,1.65,2.1,2.49,3.14,0,0,0,0,0,0,0,0,0,0,0,0l-39.72,199.07,19.11,3.81,36.86-184.75c2.14,2.15,4.32,4.26,6.54,6.32l-7.23,182.7,19.06.75,6.64-167.97c-6.04-4.55-11.85-9.41-17.42-14.52Z" />  <path fill="#e0ffe0" opacity="0.1" transform="scale(0.12) rotate(90) translate(1666, 166)" d="m448.11,372.02c.43-2.16.79-4.35,1.07-6.56l253.71,40.36-1.04,6.56-253.73-40.36Zm240.37,93.72l2.17-6.68-244.41-79.27c-.65,2.26-1.38,4.49-2.19,6.68l244.43,79.28Zm-25.42,47.6c1.77-1.86,3.5-3.75,5.2-5.67l-227.03-114.42c-1.03,2.25-2.16,4.45-3.36,6.6l225.18,113.49Zm-41.85,34.74c2.33-1.51,4.62-3.06,6.89-4.66l-193.82-137.66c-1.43,2.17-2.94,4.29-4.54,6.33l191.46,135.98Zm-201.38-125.11l154.24,148.6c2.83-1.03,5.63-2.11,8.41-3.25l-156.93-151.2c-1.82,2.03-3.73,3.98-5.71,5.84Zm104.79,160.57c3.24-.41,6.46-.91,9.67-1.46l-119.08-155.03c-2.2,1.81-4.48,3.53-6.83,5.14l116.24,151.34Zm-48.78,1.09c3.49.28,7.01.49,10.54.61l-82.84-149.95c-2.55,1.53-5.17,2.95-7.86,4.24l80.16,145.1Zm-45.49-8.33c3.63,1.05,7.29,2.01,10.98,2.88l-50.53-137.49c-2.86,1.18-5.79,2.22-8.78,3.12l48.32,131.48Zm-40.35-15.91c3.59,1.82,7.23,3.55,10.92,5.19l-23.83-119.41c-3.12.76-6.3,1.36-9.53,1.81l22.43,112.42Zm-37.73-111.55l3.57,90.3c3.39,2.54,6.85,4.98,10.38,7.34l-3.87-97.93c-2.6.21-5.22.33-7.88.33-.73,0-1.47-.01-2.2-.03Zm31.06-299.07L400.79,3.05l-10.73-1.28-18.43,154.88c3.69-2.32,7.46-4.54,11.29-6.65.14-.08.28-.16.42-.24Zm31.69-14.42c1.88-.69,3.78-1.35,5.69-1.99.25-.08.49-.18.74-.26l33.39-118.39-10.8-3.05-35.6,126.22c.23-.09.46-.18.69-.27,1.73-.69,3.47-1.36,5.22-2.01.22-.08.45-.17.67-.25Zm49.83-12.2l40.65-88.91-10.58-4.84-43.88,95.97c.21-.04.42-.08.63-.12.57-.11,1.14-.21,1.71-.32,3.79-.69,7.61-1.3,11.47-1.79Zm40.42-1.7c.87.04,1.73.08,2.59.13,1.39.07,2.77.16,4.15.26l39.93-60.93-10.08-6.6-43.87,66.95c2.07.03,4.13.08,6.19.16.36.01.72.03,1.08.04Zm88.24-27.47l-9.29-8.31-37.05,41.44c3.46.8,6.88,1.68,10.28,2.63,1.09.3,2.17.62,3.25.93l32.81-36.69Zm8.52,53.37c2.04,1.06,4.06,2.16,6.07,3.28l21.5-17.83-8.22-9.91-25.67,21.28c.44.21.87.44,1.31.66,1.56.76,3.11,1.54,4.65,2.34.12.06.24.12.36.18Zm49.24,34.41l8.33-5.02-6.86-11.38-12.09,7.29c3.36,2.71,6.64,5.52,9.84,8.42.26.23.53.46.79.69Zm-11.83,353.19l12.55,7.56,8.35-13.86-7.97-4.81c-4.17,3.85-8.49,7.56-12.93,11.1Zm-45.59,28.39l26.34,21.84,10.59-12.78-20.95-17.37c-5.2,2.97-10.54,5.74-15.98,8.31Zm-49.23,16.74l37.91,42.4,12.68-11.34-32.09-35.9c-6.06,1.86-12.23,3.47-18.49,4.84Zm-49.68,5.35s-.09,0-.13,0l44.81,68.38,14.57-9.55-39.13-59.71c-6.63.57-13.34.88-20.13.88Zm-47.65-4.91l44.8,98,16.22-7.42-39.86-87.19c-7.16-.81-14.22-1.94-21.16-3.39Zm-42.98-13.46l36.35,128.87,17.57-4.95-32.76-116.14c-7.21-2.26-14.27-4.86-21.16-7.78Zm-36.97-19.84l18.81,158.1,18.53-2.21-17.13-143.99c-6.95-3.64-13.7-7.61-20.21-11.91Zm-102.61-226.42L18.29,240.85l-2.19,6.74,246.45,79.93c.64-2.28,1.37-4.53,2.17-6.75Zm-3.93,14.14L4.92,294.22l-1.05,6.59,255.87,40.7c.28-2.22.63-4.42,1.06-6.59Zm445.97,7.43v21.91h-257.45c.4-3.57.62-7.19.62-10.87s-.22-7.42-.64-11.04h0c-.59-5.14-1.59-10.15-2.96-15.01-1.34-4.73-3.04-9.31-5.05-13.71-2.01-4.37-4.33-8.57-6.95-12.55-2.63-4-5.54-7.79-8.72-11.34-3.19-3.56-6.64-6.88-10.32-9.93h0c-3.67-3.04-7.57-5.8-11.68-8.27-4.06-2.44-8.31-4.59-12.73-6.41-4.36-1.8-8.88-3.28-13.53-4.43-4.61-1.13-9.35-1.93-14.19-2.37-2.86-.26-5.76-.4-8.69-.4-2.09,0-4.17.07-6.22.21-5.17.33-10.22,1.07-15.13,2.19-4.77,1.09-9.4,2.54-13.87,4.31-4.42,1.75-8.67,3.83-12.74,6.2-4.07,2.37-7.95,5.03-11.61,7.96h0c-3.67,2.94-7.13,6.14-10.33,9.58h0c-3.2,3.44-6.15,7.11-8.81,10.99h0c-2.65,3.85-5.02,7.9-7.09,12.13-1.21,2.46-2.31,4.99-3.3,7.57h0c.26-1.77.54-3.54.84-5.29,0,0,0,0,0,0,0,0,0,0,0,0L36,197.75l3.38-6.7,228.28,115.05s0,.03,0,.05c.53-2.57,1.12-5.12,1.73-7.65-.02.06-.05.12-.07.19L62.86,152.05l4.58-6.45,204.01,144.9s0,0,0,.01c.75-2.69,1.56-5.35,2.41-8L95.99,111.14l5.78-6,175.06,168.66c1.08-2.96,2.22-5.9,3.42-8.81L134.77,75.6l6.94-5.32,142.53,185.57c1.54-3.33,3.16-6.62,4.85-9.86L178.65,46.07l8.01-4.43,107.67,194.9c2.21-3.8,4.53-7.52,6.95-11.18L226.99,23.2l8.98-3.3,72,195.91c3.22-4.37,6.59-8.63,10.1-12.76L279.09,7.74l9.79-1.95,37.51,187.99c4.71-4.97,9.63-9.74,14.75-14.28L334.07.41l10.39-.41,6.77,171.06c-3.38,2.67-6.68,5.43-9.9,8.27,0,0,0,0,0,0,0,0,0,0,0,0l7.54,63.36,2.85-72.05c5.98-4.7,12.2-9.1,18.63-13.2l-3.2,80.92,17.86-89.52c6.75-3.63,13.69-6.94,20.82-9.91l-19.33,96.88,38.13-103.76c7.27-2.31,14.69-4.27,22.25-5.86l-41.25,112.24,64.01-115.86c7.47-.81,15.06-1.26,22.73-1.35l-68.42,123.85,94.26-122.72c7.51.75,14.92,1.86,22.2,3.31l-99.29,129.27,126.68-122.05c7.02,2.32,13.9,4.97,20.61,7.92l-131.57,126.76,158.62-112.66c6.22,3.78,12.24,7.85,18.05,12.19l-162.95,115.74,187.59-94.54c5.12,5.06,10,10.36,14.63,15.88l-191.41,96.47,204.94-66.47,6.52,20.12-204.82,66.43,212.67-33.83,3.38,21.27-215.02,34.21h217.72Zm-429.91-62.61l-1.52-1.7c-.04.11-.08.23-.12.34l1.64,1.36Zm10.31-12.75l-4.71-7.19c-.19.43-.38.86-.56,1.29,0,0,0,0,0,0,0,0,0,0,0,0l5.27,5.9Zm12.46-11.21l-7.25-15.85s.02-.04.03-.06c-.01.02-.02.04-.03.06-.48.86-.96,1.73-1.44,2.6,0,0,0,0,0,0,0,0,0,0,0,0l8.68,13.25Zm14.68-8.66l-8.14-28.85c-1.03,1.44-2.05,2.9-3.06,4.37l11.19,24.49Zm16.68-4.73l-5.65-47.5c-2.01,2.15-3.97,4.33-5.9,6.55l11.55,40.95Zm7.04,281.91l9.01-75.73c-3.51-.27-6.97-.74-10.37-1.38l-8.08,67.93c-4.05-4.16-7.94-8.48-11.67-12.93l15.75-55.84c-3.55-.83-7.02-1.86-10.4-3.07l-13.65,48.41c-2.55-3.42-5.01-6.92-7.36-10.48,0,0,0,0,0,0l17.88-39.11c-3.49-1.39-6.89-2.98-10.16-4.77l-14.82,32.43c-1.56-2.68-3.07-5.4-4.52-8.15l16.84-25.69c-3.35-1.96-6.57-4.11-9.65-6.45l-13.13,20.04c-.92-2.02-1.82-4.06-2.68-6.11l13.83-15.47c-3.12-2.5-6.08-5.2-8.87-8.07l-9.82,10.99c-.51-1.44-1.01-2.89-1.5-4.35l9.86-8.18c-2.8-3.02-5.42-6.22-7.82-9.59l-5.9,4.89c-.26-.95-.51-1.91-.75-2.86l5.68-3.42c-2.4-3.5-4.57-7.16-6.5-10.97l-2.12,1.28c-.11-.55-.21-1.1-.31-1.66l1.86-.77c-1.18-2.42-2.26-4.9-3.24-7.44h0c-1.04-2.68-1.96-5.42-2.75-8.21h0c-1.35-4.74-2.34-9.64-2.94-14.65-.45-3.78-.69-7.62-.69-11.52s.25-7.86.71-11.69H0v23.21h209.61L2.61,397.85l3.58,22.52,204.76-32.57L13.74,451.75l6.91,21.29,197.38-64.02-185.29,93.38,9.89,19.62,186.82-94.16-170.55,121.13,12.48,17.58,172.57-122.57-152.42,146.85,14.67,15.23,154.41-148.77-130.6,170.04,16.44,12.63,132.38-172.35-105.09,190.22,17.79,9.83,106.1-192.05s0,0,0,0c.05.07.09.14.14.22,0,0,0,0,0-.01l-75.64,205.81,18.68,6.87,70.84-192.76c.82,1.05,1.65,2.1,2.49,3.14,0,0,0,0,0,0,0,0,0,0,0,0l-39.72,199.07,19.11,3.81,36.86-184.75c2.14,2.15,4.32,4.26,6.54,6.32l-7.23,182.7,19.06.75,6.64-167.97c-6.04-4.55-11.85-9.41-17.42-14.52Z" />  <path fill="#e0ffe0" opacity="0.1" transform="scale(0.12) rotate(90) translate(1666, 166)" d="m448.11,372.02c.43-2.16.79-4.35,1.07-6.56l253.71,40.36-1.04,6.56-253.73-40.36Zm240.37,93.72l2.17-6.68-244.41-79.27c-.65,2.26-1.38,4.49-2.19,6.68l244.43,79.28Zm-25.42,47.6c1.77-1.86,3.5-3.75,5.2-5.67l-227.03-114.42c-1.03,2.25-2.16,4.45-3.36,6.6l225.18,113.49Zm-41.85,34.74c2.33-1.51,4.62-3.06,6.89-4.66l-193.82-137.66c-1.43,2.17-2.94,4.29-4.54,6.33l191.46,135.98Zm-201.38-125.11l154.24,148.6c2.83-1.03,5.63-2.11,8.41-3.25l-156.93-151.2c-1.82,2.03-3.73,3.98-5.71,5.84Zm104.79,160.57c3.24-.41,6.46-.91,9.67-1.46l-119.08-155.03c-2.2,1.81-4.48,3.53-6.83,5.14l116.24,151.34Zm-48.78,1.09c3.49.28,7.01.49,10.54.61l-82.84-149.95c-2.55,1.53-5.17,2.95-7.86,4.24l80.16,145.1Zm-45.49-8.33c3.63,1.05,7.29,2.01,10.98,2.88l-50.53-137.49c-2.86,1.18-5.79,2.22-8.78,3.12l48.32,131.48Zm-40.35-15.91c3.59,1.82,7.23,3.55,10.92,5.19l-23.83-119.41c-3.12.76-6.3,1.36-9.53,1.81l22.43,112.42Zm-37.73-111.55l3.57,90.3c3.39,2.54,6.85,4.98,10.38,7.34l-3.87-97.93c-2.6.21-5.22.33-7.88.33-.73,0-1.47-.01-2.2-.03Zm31.06-299.07L400.79,3.05l-10.73-1.28-18.43,154.88c3.69-2.32,7.46-4.54,11.29-6.65.14-.08.28-.16.42-.24Zm31.69-14.42c1.88-.69,3.78-1.35,5.69-1.99.25-.08.49-.18.74-.26l33.39-118.39-10.8-3.05-35.6,126.22c.23-.09.46-.18.69-.27,1.73-.69,3.47-1.36,5.22-2.01.22-.08.45-.17.67-.25Zm49.83-12.2l40.65-88.91-10.58-4.84-43.88,95.97c.21-.04.42-.08.63-.12.57-.11,1.14-.21,1.71-.32,3.79-.69,7.61-1.3,11.47-1.79Zm40.42-1.7c.87.04,1.73.08,2.59.13,1.39.07,2.77.16,4.15.26l39.93-60.93-10.08-6.6-43.87,66.95c2.07.03,4.13.08,6.19.16.36.01.72.03,1.08.04Zm88.24-27.47l-9.29-8.31-37.05,41.44c3.46.8,6.88,1.68,10.28,2.63,1.09.3,2.17.62,3.25.93l32.81-36.69Zm8.52,53.37c2.04,1.06,4.06,2.16,6.07,3.28l21.5-17.83-8.22-9.91-25.67,21.28c.44.21.87.44,1.31.66,1.56.76,3.11,1.54,4.65,2.34.12.06.24.12.36.18Zm49.24,34.41l8.33-5.02-6.86-11.38-12.09,7.29c3.36,2.71,6.64,5.52,9.84,8.42.26.23.53.46.79.69Zm-11.83,353.19l12.55,7.56,8.35-13.86-7.97-4.81c-4.17,3.85-8.49,7.56-12.93,11.1Zm-45.59,28.39l26.34,21.84,10.59-12.78-20.95-17.37c-5.2,2.97-10.54,5.74-15.98,8.31Zm-49.23,16.74l37.91,42.4,12.68-11.34-32.09-35.9c-6.06,1.86-12.23,3.47-18.49,4.84Zm-49.68,5.35s-.09,0-.13,0l44.81,68.38,14.57-9.55-39.13-59.71c-6.63.57-13.34.88-20.13.88Zm-47.65-4.91l44.8,98,16.22-7.42-39.86-87.19c-7.16-.81-14.22-1.94-21.16-3.39Zm-42.98-13.46l36.35,128.87,17.57-4.95-32.76-116.14c-7.21-2.26-14.27-4.86-21.16-7.78Zm-36.97-19.84l18.81,158.1,18.53-2.21-17.13-143.99c-6.95-3.64-13.7-7.61-20.21-11.91Zm-102.61-226.42L18.29,240.85l-2.19,6.74,246.45,79.93c.64-2.28,1.37-4.53,2.17-6.75Zm-3.93,14.14L4.92,294.22l-1.05,6.59,255.87,40.7c.28-2.22.63-4.42,1.06-6.59Zm445.97,7.43v21.91h-257.45c.4-3.57.62-7.19.62-10.87s-.22-7.42-.64-11.04h0c-.59-5.14-1.59-10.15-2.96-15.01-1.34-4.73-3.04-9.31-5.05-13.71-2.01-4.37-4.33-8.57-6.95-12.55-2.63-4-5.54-7.79-8.72-11.34-3.19-3.56-6.64-6.88-10.32-9.93h0c-3.67-3.04-7.57-5.8-11.68-8.27-4.06-2.44-8.31-4.59-12.73-6.41-4.36-1.8-8.88-3.28-13.53-4.43-4.61-1.13-9.35-1.93-14.19-2.37-2.86-.26-5.76-.4-8.69-.4-2.09,0-4.17.07-6.22.21-5.17.33-10.22,1.07-15.13,2.19-4.77,1.09-9.4,2.54-13.87,4.31-4.42,1.75-8.67,3.83-12.74,6.2-4.07,2.37-7.95,5.03-11.61,7.96h0c-3.67,2.94-7.13,6.14-10.33,9.58h0c-3.2,3.44-6.15,7.11-8.81,10.99h0c-2.65,3.85-5.02,7.9-7.09,12.13-1.21,2.46-2.31,4.99-3.3,7.57h0c.26-1.77.54-3.54.84-5.29,0,0,0,0,0,0,0,0,0,0,0,0L36,197.75l3.38-6.7,228.28,115.05s0,.03,0,.05c.53-2.57,1.12-5.12,1.73-7.65-.02.06-.05.12-.07.19L62.86,152.05l4.58-6.45,204.01,144.9s0,0,0,.01c.75-2.69,1.56-5.35,2.41-8L95.99,111.14l5.78-6,175.06,168.66c1.08-2.96,2.22-5.9,3.42-8.81L134.77,75.6l6.94-5.32,142.53,185.57c1.54-3.33,3.16-6.62,4.85-9.86L178.65,46.07l8.01-4.43,107.67,194.9c2.21-3.8,4.53-7.52,6.95-11.18L226.99,23.2l8.98-3.3,72,195.91c3.22-4.37,6.59-8.63,10.1-12.76L279.09,7.74l9.79-1.95,37.51,187.99c4.71-4.97,9.63-9.74,14.75-14.28L334.07.41l10.39-.41,6.77,171.06c-3.38,2.67-6.68,5.43-9.9,8.27,0,0,0,0,0,0,0,0,0,0,0,0l7.54,63.36,2.85-72.05c5.98-4.7,12.2-9.1,18.63-13.2l-3.2,80.92,17.86-89.52c6.75-3.63,13.69-6.94,20.82-9.91l-19.33,96.88,38.13-103.76c7.27-2.31,14.69-4.27,22.25-5.86l-41.25,112.24,64.01-115.86c7.47-.81,15.06-1.26,22.73-1.35l-68.42,123.85,94.26-122.72c7.51.75,14.92,1.86,22.2,3.31l-99.29,129.27,126.68-122.05c7.02,2.32,13.9,4.97,20.61,7.92l-131.57,126.76,158.62-112.66c6.22,3.78,12.24,7.85,18.05,12.19l-162.95,115.74,187.59-94.54c5.12,5.06,10,10.36,14.63,15.88l-191.41,96.47,204.94-66.47,6.52,20.12-204.82,66.43,212.67-33.83,3.38,21.27-215.02,34.21h217.72Zm-429.91-62.61l-1.52-1.7c-.04.11-.08.23-.12.34l1.64,1.36Zm10.31-12.75l-4.71-7.19c-.19.43-.38.86-.56,1.29,0,0,0,0,0,0,0,0,0,0,0,0l5.27,5.9Zm12.46-11.21l-7.25-15.85s.02-.04.03-.06c-.01.02-.02.04-.03.06-.48.86-.96,1.73-1.44,2.6,0,0,0,0,0,0,0,0,0,0,0,0l8.68,13.25Zm14.68-8.66l-8.14-28.85c-1.03,1.44-2.05,2.9-3.06,4.37l11.19,24.49Zm16.68-4.73l-5.65-47.5c-2.01,2.15-3.97,4.33-5.9,6.55l11.55,40.95Zm7.04,281.91l9.01-75.73c-3.51-.27-6.97-.74-10.37-1.38l-8.08,67.93c-4.05-4.16-7.94-8.48-11.67-12.93l15.75-55.84c-3.55-.83-7.02-1.86-10.4-3.07l-13.65,48.41c-2.55-3.42-5.01-6.92-7.36-10.48,0,0,0,0,0,0l17.88-39.11c-3.49-1.39-6.89-2.98-10.16-4.77l-14.82,32.43c-1.56-2.68-3.07-5.4-4.52-8.15l16.84-25.69c-3.35-1.96-6.57-4.11-9.65-6.45l-13.13,20.04c-.92-2.02-1.82-4.06-2.68-6.11l13.83-15.47c-3.12-2.5-6.08-5.2-8.87-8.07l-9.82,10.99c-.51-1.44-1.01-2.89-1.5-4.35l9.86-8.18c-2.8-3.02-5.42-6.22-7.82-9.59l-5.9,4.89c-.26-.95-.51-1.91-.75-2.86l5.68-3.42c-2.4-3.5-4.57-7.16-6.5-10.97l-2.12,1.28c-.11-.55-.21-1.1-.31-1.66l1.86-.77c-1.18-2.42-2.26-4.9-3.24-7.44h0c-1.04-2.68-1.96-5.42-2.75-8.21h0c-1.35-4.74-2.34-9.64-2.94-14.65-.45-3.78-.69-7.62-.69-11.52s.25-7.86.71-11.69H0v23.21h209.61L2.61,397.85l3.58,22.52,204.76-32.57L13.74,451.75l6.91,21.29,197.38-64.02-185.29,93.38,9.89,19.62,186.82-94.16-170.55,121.13,12.48,17.58,172.57-122.57-152.42,146.85,14.67,15.23,154.41-148.77-130.6,170.04,16.44,12.63,132.38-172.35-105.09,190.22,17.79,9.83,106.1-192.05s0,0,0,0c.05.07.09.14.14.22,0,0,0,0,0-.01l-75.64,205.81,18.68,6.87,70.84-192.76c.82,1.05,1.65,2.1,2.49,3.14,0,0,0,0,0,0,0,0,0,0,0,0l-39.72,199.07,19.11,3.81,36.86-184.75c2.14,2.15,4.32,4.26,6.54,6.32l-7.23,182.7,19.06.75,6.64-167.97c-6.04-4.55-11.85-9.41-17.42-14.52Z" />  <path fill="#e0ffe0" opacity="0.09" transform="scale(0.09) rotate(135) translate(3333, 740)" d="m448.11,372.02c.43-2.16.79-4.35,1.07-6.56l253.71,40.36-1.04,6.56-253.73-40.36Zm240.37,93.72l2.17-6.68-244.41-79.27c-.65,2.26-1.38,4.49-2.19,6.68l244.43,79.28Zm-25.42,47.6c1.77-1.86,3.5-3.75,5.2-5.67l-227.03-114.42c-1.03,2.25-2.16,4.45-3.36,6.6l225.18,113.49Zm-41.85,34.74c2.33-1.51,4.62-3.06,6.89-4.66l-193.82-137.66c-1.43,2.17-2.94,4.29-4.54,6.33l191.46,135.98Zm-201.38-125.11l154.24,148.6c2.83-1.03,5.63-2.11,8.41-3.25l-156.93-151.2c-1.82,2.03-3.73,3.98-5.71,5.84Zm104.79,160.57c3.24-.41,6.46-.91,9.67-1.46l-119.08-155.03c-2.2,1.81-4.48,3.53-6.83,5.14l116.24,151.34Zm-48.78,1.09c3.49.28,7.01.49,10.54.61l-82.84-149.95c-2.55,1.53-5.17,2.95-7.86,4.24l80.16,145.1Zm-45.49-8.33c3.63,1.05,7.29,2.01,10.98,2.88l-50.53-137.49c-2.86,1.18-5.79,2.22-8.78,3.12l48.32,131.48Zm-40.35-15.91c3.59,1.82,7.23,3.55,10.92,5.19l-23.83-119.41c-3.12.76-6.3,1.36-9.53,1.81l22.43,112.42Zm-37.73-111.55l3.57,90.3c3.39,2.54,6.85,4.98,10.38,7.34l-3.87-97.93c-2.6.21-5.22.33-7.88.33-.73,0-1.47-.01-2.2-.03Zm31.06-299.07L400.79,3.05l-10.73-1.28-18.43,154.88c3.69-2.32,7.46-4.54,11.29-6.65.14-.08.28-.16.42-.24Zm31.69-14.42c1.88-.69,3.78-1.35,5.69-1.99.25-.08.49-.18.74-.26l33.39-118.39-10.8-3.05-35.6,126.22c.23-.09.46-.18.69-.27,1.73-.69,3.47-1.36,5.22-2.01.22-.08.45-.17.67-.25Zm49.83-12.2l40.65-88.91-10.58-4.84-43.88,95.97c.21-.04.42-.08.63-.12.57-.11,1.14-.21,1.71-.32,3.79-.69,7.61-1.3,11.47-1.79Zm40.42-1.7c.87.04,1.73.08,2.59.13,1.39.07,2.77.16,4.15.26l39.93-60.93-10.08-6.6-43.87,66.95c2.07.03,4.13.08,6.19.16.36.01.72.03,1.08.04Zm88.24-27.47l-9.29-8.31-37.05,41.44c3.46.8,6.88,1.68,10.28,2.63,1.09.3,2.17.62,3.25.93l32.81-36.69Zm8.52,53.37c2.04,1.06,4.06,2.16,6.07,3.28l21.5-17.83-8.22-9.91-25.67,21.28c.44.21.87.44,1.31.66,1.56.76,3.11,1.54,4.65,2.34.12.06.24.12.36.18Zm49.24,34.41l8.33-5.02-6.86-11.38-12.09,7.29c3.36,2.71,6.64,5.52,9.84,8.42.26.23.53.46.79.69Zm-11.83,353.19l12.55,7.56,8.35-13.86-7.97-4.81c-4.17,3.85-8.49,7.56-12.93,11.1Zm-45.59,28.39l26.34,21.84,10.59-12.78-20.95-17.37c-5.2,2.97-10.54,5.74-15.98,8.31Zm-49.23,16.74l37.91,42.4,12.68-11.34-32.09-35.9c-6.06,1.86-12.23,3.47-18.49,4.84Zm-49.68,5.35s-.09,0-.13,0l44.81,68.38,14.57-9.55-39.13-59.71c-6.63.57-13.34.88-20.13.88Zm-47.65-4.91l44.8,98,16.22-7.42-39.86-87.19c-7.16-.81-14.22-1.94-21.16-3.39Zm-42.98-13.46l36.35,128.87,17.57-4.95-32.76-116.14c-7.21-2.26-14.27-4.86-21.16-7.78Zm-36.97-19.84l18.81,158.1,18.53-2.21-17.13-143.99c-6.95-3.64-13.7-7.61-20.21-11.91Zm-102.61-226.42L18.29,240.85l-2.19,6.74,246.45,79.93c.64-2.28,1.37-4.53,2.17-6.75Zm-3.93,14.14L4.92,294.22l-1.05,6.59,255.87,40.7c.28-2.22.63-4.42,1.06-6.59Zm445.97,7.43v21.91h-257.45c.4-3.57.62-7.19.62-10.87s-.22-7.42-.64-11.04h0c-.59-5.14-1.59-10.15-2.96-15.01-1.34-4.73-3.04-9.31-5.05-13.71-2.01-4.37-4.33-8.57-6.95-12.55-2.63-4-5.54-7.79-8.72-11.34-3.19-3.56-6.64-6.88-10.32-9.93h0c-3.67-3.04-7.57-5.8-11.68-8.27-4.06-2.44-8.31-4.59-12.73-6.41-4.36-1.8-8.88-3.28-13.53-4.43-4.61-1.13-9.35-1.93-14.19-2.37-2.86-.26-5.76-.4-8.69-.4-2.09,0-4.17.07-6.22.21-5.17.33-10.22,1.07-15.13,2.19-4.77,1.09-9.4,2.54-13.87,4.31-4.42,1.75-8.67,3.83-12.74,6.2-4.07,2.37-7.95,5.03-11.61,7.96h0c-3.67,2.94-7.13,6.14-10.33,9.58h0c-3.2,3.44-6.15,7.11-8.81,10.99h0c-2.65,3.85-5.02,7.9-7.09,12.13-1.21,2.46-2.31,4.99-3.3,7.57h0c.26-1.77.54-3.54.84-5.29,0,0,0,0,0,0,0,0,0,0,0,0L36,197.75l3.38-6.7,228.28,115.05s0,.03,0,.05c.53-2.57,1.12-5.12,1.73-7.65-.02.06-.05.12-.07.19L62.86,152.05l4.58-6.45,204.01,144.9s0,0,0,.01c.75-2.69,1.56-5.35,2.41-8L95.99,111.14l5.78-6,175.06,168.66c1.08-2.96,2.22-5.9,3.42-8.81L134.77,75.6l6.94-5.32,142.53,185.57c1.54-3.33,3.16-6.62,4.85-9.86L178.65,46.07l8.01-4.43,107.67,194.9c2.21-3.8,4.53-7.52,6.95-11.18L226.99,23.2l8.98-3.3,72,195.91c3.22-4.37,6.59-8.63,10.1-12.76L279.09,7.74l9.79-1.95,37.51,187.99c4.71-4.97,9.63-9.74,14.75-14.28L334.07.41l10.39-.41,6.77,171.06c-3.38,2.67-6.68,5.43-9.9,8.27,0,0,0,0,0,0,0,0,0,0,0,0l7.54,63.36,2.85-72.05c5.98-4.7,12.2-9.1,18.63-13.2l-3.2,80.92,17.86-89.52c6.75-3.63,13.69-6.94,20.82-9.91l-19.33,96.88,38.13-103.76c7.27-2.31,14.69-4.27,22.25-5.86l-41.25,112.24,64.01-115.86c7.47-.81,15.06-1.26,22.73-1.35l-68.42,123.85,94.26-122.72c7.51.75,14.92,1.86,22.2,3.31l-99.29,129.27,126.68-122.05c7.02,2.32,13.9,4.97,20.61,7.92l-131.57,126.76,158.62-112.66c6.22,3.78,12.24,7.85,18.05,12.19l-162.95,115.74,187.59-94.54c5.12,5.06,10,10.36,14.63,15.88l-191.41,96.47,204.94-66.47,6.52,20.12-204.82,66.43,212.67-33.83,3.38,21.27-215.02,34.21h217.72Zm-429.91-62.61l-1.52-1.7c-.04.11-.08.23-.12.34l1.64,1.36Zm10.31-12.75l-4.71-7.19c-.19.43-.38.86-.56,1.29,0,0,0,0,0,0,0,0,0,0,0,0l5.27,5.9Zm12.46-11.21l-7.25-15.85s.02-.04.03-.06c-.01.02-.02.04-.03.06-.48.86-.96,1.73-1.44,2.6,0,0,0,0,0,0,0,0,0,0,0,0l8.68,13.25Zm14.68-8.66l-8.14-28.85c-1.03,1.44-2.05,2.9-3.06,4.37l11.19,24.49Zm16.68-4.73l-5.65-47.5c-2.01,2.15-3.97,4.33-5.9,6.55l11.55,40.95Zm7.04,281.91l9.01-75.73c-3.51-.27-6.97-.74-10.37-1.38l-8.08,67.93c-4.05-4.16-7.94-8.48-11.67-12.93l15.75-55.84c-3.55-.83-7.02-1.86-10.4-3.07l-13.65,48.41c-2.55-3.42-5.01-6.92-7.36-10.48,0,0,0,0,0,0l17.88-39.11c-3.49-1.39-6.89-2.98-10.16-4.77l-14.82,32.43c-1.56-2.68-3.07-5.4-4.52-8.15l16.84-25.69c-3.35-1.96-6.57-4.11-9.65-6.45l-13.13,20.04c-.92-2.02-1.82-4.06-2.68-6.11l13.83-15.47c-3.12-2.5-6.08-5.2-8.87-8.07l-9.82,10.99c-.51-1.44-1.01-2.89-1.5-4.35l9.86-8.18c-2.8-3.02-5.42-6.22-7.82-9.59l-5.9,4.89c-.26-.95-.51-1.91-.75-2.86l5.68-3.42c-2.4-3.5-4.57-7.16-6.5-10.97l-2.12,1.28c-.11-.55-.21-1.1-.31-1.66l1.86-.77c-1.18-2.42-2.26-4.9-3.24-7.44h0c-1.04-2.68-1.96-5.42-2.75-8.21h0c-1.35-4.74-2.34-9.64-2.94-14.65-.45-3.78-.69-7.62-.69-11.52s.25-7.86.71-11.69H0v23.21h209.61L2.61,397.85l3.58,22.52,204.76-32.57L13.74,451.75l6.91,21.29,197.38-64.02-185.29,93.38,9.89,19.62,186.82-94.16-170.55,121.13,12.48,17.58,172.57-122.57-152.42,146.85,14.67,15.23,154.41-148.77-130.6,170.04,16.44,12.63,132.38-172.35-105.09,190.22,17.79,9.83,106.1-192.05s0,0,0,0c.05.07.09.14.14.22,0,0,0,0,0-.01l-75.64,205.81,18.68,6.87,70.84-192.76c.82,1.05,1.65,2.1,2.49,3.14,0,0,0,0,0,0,0,0,0,0,0,0l-39.72,199.07,19.11,3.81,36.86-184.75c2.14,2.15,4.32,4.26,6.54,6.32l-7.23,182.7,19.06.75,6.64-167.97c-6.04-4.55-11.85-9.41-17.42-14.52Z" />  <path fill="#e0ffe0" opacity="0.11" transform="scale(0.11) rotate(180) translate(3636, 272)" d="m448.11,372.02c.43-2.16.79-4.35,1.07-6.56l253.71,40.36-1.04,6.56-253.73-40.36Zm240.37,93.72l2.17-6.68-244.41-79.27c-.65,2.26-1.38,4.49-2.19,6.68l244.43,79.28Zm-25.42,47.6c1.77-1.86,3.5-3.75,5.2-5.67l-227.03-114.42c-1.03,2.25-2.16,4.45-3.36,6.6l225.18,113.49Zm-41.85,34.74c2.33-1.51,4.62-3.06,6.89-4.66l-193.82-137.66c-1.43,2.17-2.94,4.29-4.54,6.33l191.46,135.98Zm-201.38-125.11l154.24,148.6c2.83-1.03,5.63-2.11,8.41-3.25l-156.93-151.2c-1.82,2.03-3.73,3.98-5.71,5.84Zm104.79,160.57c3.24-.41,6.46-.91,9.67-1.46l-119.08-155.03c-2.2,1.81-4.48,3.53-6.83,5.14l116.24,151.34Zm-48.78,1.09c3.49.28,7.01.49,10.54.61l-82.84-149.95c-2.55,1.53-5.17,2.95-7.86,4.24l80.16,145.1Zm-45.49-8.33c3.63,1.05,7.29,2.01,10.98,2.88l-50.53-137.49c-2.86,1.18-5.79,2.22-8.78,3.12l48.32,131.48Zm-40.35-15.91c3.59,1.82,7.23,3.55,10.92,5.19l-23.83-119.41c-3.12.76-6.3,1.36-9.53,1.81l22.43,112.42Zm-37.73-111.55l3.57,90.3c3.39,2.54,6.85,4.98,10.38,7.34l-3.87-97.93c-2.6.21-5.22.33-7.88.33-.73,0-1.47-.01-2.2-.03Zm31.06-299.07L400.79,3.05l-10.73-1.28-18.43,154.88c3.69-2.32,7.46-4.54,11.29-6.65.14-.08.28-.16.42-.24Zm31.69-14.42c1.88-.69,3.78-1.35,5.69-1.99.25-.08.49-.18.74-.26l33.39-118.39-10.8-3.05-35.6,126.22c.23-.09.46-.18.69-.27,1.73-.69,3.47-1.36,5.22-2.01.22-.08.45-.17.67-.25Zm49.83-12.2l40.65-88.91-10.58-4.84-43.88,95.97c.21-.04.42-.08.63-.12.57-.11,1.14-.21,1.71-.32,3.79-.69,7.61-1.3,11.47-1.79Zm40.42-1.7c.87.04,1.73.08,2.59.13,1.39.07,2.77.16,4.15.26l39.93-60.93-10.08-6.6-43.87,66.95c2.07.03,4.13.08,6.19.16.36.01.72.03,1.08.04Zm88.24-27.47l-9.29-8.31-37.05,41.44c3.46.8,6.88,1.68,10.28,2.63,1.09.3,2.17.62,3.25.93l32.81-36.69Zm8.52,53.37c2.04,1.06,4.06,2.16,6.07,3.28l21.5-17.83-8.22-9.91-25.67,21.28c.44.21.87.44,1.31.66,1.56.76,3.11,1.54,4.65,2.34.12.06.24.12.36.18Zm49.24,34.41l8.33-5.02-6.86-11.38-12.09,7.29c3.36,2.71,6.64,5.52,9.84,8.42.26.23.53.46.79.69Zm-11.83,353.19l12.55,7.56,8.35-13.86-7.97-4.81c-4.17,3.85-8.49,7.56-12.93,11.1Zm-45.59,28.39l26.34,21.84,10.59-12.78-20.95-17.37c-5.2,2.97-10.54,5.74-15.98,8.31Zm-49.23,16.74l37.91,42.4,12.68-11.34-32.09-35.9c-6.06,1.86-12.23,3.47-18.49,4.84Zm-49.68,5.35s-.09,0-.13,0l44.81,68.38,14.57-9.55-39.13-59.71c-6.63.57-13.34.88-20.13.88Zm-47.65-4.91l44.8,98,16.22-7.42-39.86-87.19c-7.16-.81-14.22-1.94-21.16-3.39Zm-42.98-13.46l36.35,128.87,17.57-4.95-32.76-116.14c-7.21-2.26-14.27-4.86-21.16-7.78Zm-36.97-19.84l18.81,158.1,18.53-2.21-17.13-143.99c-6.95-3.64-13.7-7.61-20.21-11.91Zm-102.61-226.42L18.29,240.85l-2.19,6.74,246.45,79.93c.64-2.28,1.37-4.53,2.17-6.75Zm-3.93,14.14L4.92,294.22l-1.05,6.59,255.87,40.7c.28-2.22.63-4.42,1.06-6.59Zm445.97,7.43v21.91h-257.45c.4-3.57.62-7.19.62-10.87s-.22-7.42-.64-11.04h0c-.59-5.14-1.59-10.15-2.96-15.01-1.34-4.73-3.04-9.31-5.05-13.71-2.01-4.37-4.33-8.57-6.95-12.55-2.63-4-5.54-7.79-8.72-11.34-3.19-3.56-6.64-6.88-10.32-9.93h0c-3.67-3.04-7.57-5.8-11.68-8.27-4.06-2.44-8.31-4.59-12.73-6.41-4.36-1.8-8.88-3.28-13.53-4.43-4.61-1.13-9.35-1.93-14.19-2.37-2.86-.26-5.76-.4-8.69-.4-2.09,0-4.17.07-6.22.21-5.17.33-10.22,1.07-15.13,2.19-4.77,1.09-9.4,2.54-13.87,4.31-4.42,1.75-8.67,3.83-12.74,6.2-4.07,2.37-7.95,5.03-11.61,7.96h0c-3.67,2.94-7.13,6.14-10.33,9.58h0c-3.2,3.44-6.15,7.11-8.81,10.99h0c-2.65,3.85-5.02,7.9-7.09,12.13-1.21,2.46-2.31,4.99-3.3,7.57h0c.26-1.77.54-3.54.84-5.29,0,0,0,0,0,0,0,0,0,0,0,0L36,197.75l3.38-6.7,228.28,115.05s0,.03,0,.05c.53-2.57,1.12-5.12,1.73-7.65-.02.06-.05.12-.07.19L62.86,152.05l4.58-6.45,204.01,144.9s0,0,0,.01c.75-2.69,1.56-5.35,2.41-8L95.99,111.14l5.78-6,175.06,168.66c1.08-2.96,2.22-5.9,3.42-8.81L134.77,75.6l6.94-5.32,142.53,185.57c1.54-3.33,3.16-6.62,4.85-9.86L178.65,46.07l8.01-4.43,107.67,194.9c2.21-3.8,4.53-7.52,6.95-11.18L226.99,23.2l8.98-3.3,72,195.91c3.22-4.37,6.59-8.63,10.1-12.76L279.09,7.74l9.79-1.95,37.51,187.99c4.71-4.97,9.63-9.74,14.75-14.28L334.07.41l10.39-.41,6.77,171.06c-3.38,2.67-6.68,5.43-9.9,8.27,0,0,0,0,0,0,0,0,0,0,0,0l7.54,63.36,2.85-72.05c5.98-4.7,12.2-9.1,18.63-13.2l-3.2,80.92,17.86-89.52c6.75-3.63,13.69-6.94,20.82-9.91l-19.33,96.88,38.13-103.76c7.27-2.31,14.69-4.27,22.25-5.86l-41.25,112.24,64.01-115.86c7.47-.81,15.06-1.26,22.73-1.35l-68.42,123.85,94.26-122.72c7.51.75,14.92,1.86,22.2,3.31l-99.29,129.27,126.68-122.05c7.02,2.32,13.9,4.97,20.61,7.92l-131.57,126.76,158.62-112.66c6.22,3.78,12.24,7.85,18.05,12.19l-162.95,115.74,187.59-94.54c5.12,5.06,10,10.36,14.63,15.88l-191.41,96.47,204.94-66.47,6.52,20.12-204.82,66.43,212.67-33.83,3.38,21.27-215.02,34.21h217.72Zm-429.91-62.61l-1.52-1.7c-.04.11-.08.23-.12.34l1.64,1.36Zm10.31-12.75l-4.71-7.19c-.19.43-.38.86-.56,1.29,0,0,0,0,0,0,0,0,0,0,0,0l5.27,5.9Zm12.46-11.21l-7.25-15.85s.02-.04.03-.06c-.01.02-.02.04-.03.06-.48.86-.96,1.73-1.44,2.6,0,0,0,0,0,0,0,0,0,0,0,0l8.68,13.25Zm14.68-8.66l-8.14-28.85c-1.03,1.44-2.05,2.9-3.06,4.37l11.19,24.49Zm16.68-4.73l-5.65-47.5c-2.01,2.15-3.97,4.33-5.9,6.55l11.55,40.95Zm7.04,281.91l9.01-75.73c-3.51-.27-6.97-.74-10.37-1.38l-8.08,67.93c-4.05-4.16-7.94-8.48-11.67-12.93l15.75-55.84c-3.55-.83-7.02-1.86-10.4-3.07l-13.65,48.41c-2.55-3.42-5.01-6.92-7.36-10.48,0,0,0,0,0,0l17.88-39.11c-3.49-1.39-6.89-2.98-10.16-4.77l-14.82,32.43c-1.56-2.68-3.07-5.4-4.52-8.15l16.84-25.69c-3.35-1.96-6.57-4.11-9.65-6.45l-13.13,20.04c-.92-2.02-1.82-4.06-2.68-6.11l13.83-15.47c-3.12-2.5-6.08-5.2-8.87-8.07l-9.82,10.99c-.51-1.44-1.01-2.89-1.5-4.35l9.86-8.18c-2.8-3.02-5.42-6.22-7.82-9.59l-5.9,4.89c-.26-.95-.51-1.91-.75-2.86l5.68-3.42c-2.4-3.5-4.57-7.16-6.5-10.97l-2.12,1.28c-.11-.55-.21-1.1-.31-1.66l1.86-.77c-1.18-2.42-2.26-4.9-3.24-7.44h0c-1.04-2.68-1.96-5.42-2.75-8.21h0c-1.35-4.74-2.34-9.64-2.94-14.65-.45-3.78-.69-7.62-.69-11.52s.25-7.86.71-11.69H0v23.21h209.61L2.61,397.85l3.58,22.52,204.76-32.57L13.74,451.75l6.91,21.29,197.38-64.02-185.29,93.38,9.89,19.62,186.82-94.16-170.55,121.13,12.48,17.58,172.57-122.57-152.42,146.85,14.67,15.23,154.41-148.77-130.6,170.04,16.44,12.63,132.38-172.35-105.09,190.22,17.79,9.83,106.1-192.05s0,0,0,0c.05.07.09.14.14.22,0,0,0,0,0-.01l-75.64,205.81,18.68,6.87,70.84-192.76c.82,1.05,1.65,2.1,2.49,3.14,0,0,0,0,0,0,0,0,0,0,0,0l-39.72,199.07,19.11,3.81,36.86-184.75c2.14,2.15,4.32,4.26,6.54,6.32l-7.23,182.7,19.06.75,6.64-167.97c-6.04-4.55-11.85-9.41-17.42-14.52Z" />  <path fill="#e0ffe0" opacity="0.07" transform="scale(0.07) rotate(220) translate(714, 2857)" d="m448.11,372.02c.43-2.16.79-4.35,1.07-6.56l253.71,40.36-1.04,6.56-253.73-40.36Zm240.37,93.72l2.17-6.68-244.41-79.27c-.65,2.26-1.38,4.49-2.19,6.68l244.43,79.28Zm-25.42,47.6c1.77-1.86,3.5-3.75,5.2-5.67l-227.03-114.42c-1.03,2.25-2.16,4.45-3.36,6.6l225.18,113.49Zm-41.85,34.74c2.33-1.51,4.62-3.06,6.89-4.66l-193.82-137.66c-1.43,2.17-2.94,4.29-4.54,6.33l191.46,135.98Zm-201.38-125.11l154.24,148.6c2.83-1.03,5.63-2.11,8.41-3.25l-156.93-151.2c-1.82,2.03-3.73,3.98-5.71,5.84Zm104.79,160.57c3.24-.41,6.46-.91,9.67-1.46l-119.08-155.03c-2.2,1.81-4.48,3.53-6.83,5.14l116.24,151.34Zm-48.78,1.09c3.49.28,7.01.49,10.54.61l-82.84-149.95c-2.55,1.53-5.17,2.95-7.86,4.24l80.16,145.1Zm-45.49-8.33c3.63,1.05,7.29,2.01,10.98,2.88l-50.53-137.49c-2.86,1.18-5.79,2.22-8.78,3.12l48.32,131.48Zm-40.35-15.91c3.59,1.82,7.23,3.55,10.92,5.19l-23.83-119.41c-3.12.76-6.3,1.36-9.53,1.81l22.43,112.42Zm-37.73-111.55l3.57,90.3c3.39,2.54,6.85,4.98,10.38,7.34l-3.87-97.93c-2.6.21-5.22.33-7.88.33-.73,0-1.47-.01-2.2-.03Zm31.06-299.07L400.79,3.05l-10.73-1.28-18.43,154.88c3.69-2.32,7.46-4.54,11.29-6.65.14-.08.28-.16.42-.24Zm31.69-14.42c1.88-.69,3.78-1.35,5.69-1.99.25-.08.49-.18.74-.26l33.39-118.39-10.8-3.05-35.6,126.22c.23-.09.46-.18.69-.27,1.73-.69,3.47-1.36,5.22-2.01.22-.08.45-.17.67-.25Zm49.83-12.2l40.65-88.91-10.58-4.84-43.88,95.97c.21-.04.42-.08.63-.12.57-.11,1.14-.21,1.71-.32,3.79-.69,7.61-1.3,11.47-1.79Zm40.42-1.7c.87.04,1.73.08,2.59.13,1.39.07,2.77.16,4.15.26l39.93-60.93-10.08-6.6-43.87,66.95c2.07.03,4.13.08,6.19.16.36.01.72.03,1.08.04Zm88.24-27.47l-9.29-8.31-37.05,41.44c3.46.8,6.88,1.68,10.28,2.63,1.09.3,2.17.62,3.25.93l32.81-36.69Zm8.52,53.37c2.04,1.06,4.06,2.16,6.07,3.28l21.5-17.83-8.22-9.91-25.67,21.28c.44.21.87.44,1.31.66,1.56.76,3.11,1.54,4.65,2.34.12.06.24.12.36.18Zm49.24,34.41l8.33-5.02-6.86-11.38-12.09,7.29c3.36,2.71,6.64,5.52,9.84,8.42.26.23.53.46.79.69Zm-11.83,353.19l12.55,7.56,8.35-13.86-7.97-4.81c-4.17,3.85-8.49,7.56-12.93,11.1Zm-45.59,28.39l26.34,21.84,10.59-12.78-20.95-17.37c-5.2,2.97-10.54,5.74-15.98,8.31Zm-49.23,16.74l37.91,42.4,12.68-11.34-32.09-35.9c-6.06,1.86-12.23,3.47-18.49,4.84Zm-49.68,5.35s-.09,0-.13,0l44.81,68.38,14.57-9.55-39.13-59.71c-6.63.57-13.34.88-20.13.88Zm-47.65-4.91l44.8,98,16.22-7.42-39.86-87.19c-7.16-.81-14.22-1.94-21.16-3.39Zm-42.98-13.46l36.35,128.87,17.57-4.95-32.76-116.14c-7.21-2.26-14.27-4.86-21.16-7.78Zm-36.97-19.84l18.81,158.1,18.53-2.21-17.13-143.99c-6.95-3.64-13.7-7.61-20.21-11.91Zm-102.61-226.42L18.29,240.85l-2.19,6.74,246.45,79.93c.64-2.28,1.37-4.53,2.17-6.75Zm-3.93,14.14L4.92,294.22l-1.05,6.59,255.87,40.7c.28-2.22.63-4.42,1.06-6.59Zm445.97,7.43v21.91h-257.45c.4-3.57.62-7.19.62-10.87s-.22-7.42-.64-11.04h0c-.59-5.14-1.59-10.15-2.96-15.01-1.34-4.73-3.04-9.31-5.05-13.71-2.01-4.37-4.33-8.57-6.95-12.55-2.63-4-5.54-7.79-8.72-11.34-3.19-3.56-6.64-6.88-10.32-9.93h0c-3.67-3.04-7.57-5.8-11.68-8.27-4.06-2.44-8.31-4.59-12.73-6.41-4.36-1.8-8.88-3.28-13.53-4.43-4.61-1.13-9.35-1.93-14.19-2.37-2.86-.26-5.76-.4-8.69-.4-2.09,0-4.17.07-6.22.21-5.17.33-10.22,1.07-15.13,2.19-4.77,1.09-9.4,2.54-13.87,4.31-4.42,1.75-8.67,3.83-12.74,6.2-4.07,2.37-7.95,5.03-11.61,7.96h0c-3.67,2.94-7.13,6.14-10.33,9.58h0c-3.2,3.44-6.15,7.11-8.81,10.99h0c-2.65,3.85-5.02,7.9-7.09,12.13-1.21,2.46-2.31,4.99-3.3,7.57h0c.26-1.77.54-3.54.84-5.29,0,0,0,0,0,0,0,0,0,0,0,0L36,197.75l3.38-6.7,228.28,115.05s0,.03,0,.05c.53-2.57,1.12-5.12,1.73-7.65-.02.06-.05.12-.07.19L62.86,152.05l4.58-6.45,204.01,144.9s0,0,0,.01c.75-2.69,1.56-5.35,2.41-8L95.99,111.14l5.78-6,175.06,168.66c1.08-2.96,2.22-5.9,3.42-8.81L134.77,75.6l6.94-5.32,142.53,185.57c1.54-3.33,3.16-6.62,4.85-9.86L178.65,46.07l8.01-4.43,107.67,194.9c2.21-3.8,4.53-7.52,6.95-11.18L226.99,23.2l8.98-3.3,72,195.91c3.22-4.37,6.59-8.63,10.1-12.76L279.09,7.74l9.79-1.95,37.51,187.99c4.71-4.97,9.63-9.74,14.75-14.28L334.07.41l10.39-.41,6.77,171.06c-3.38,2.67-6.68,5.43-9.9,8.27,0,0,0,0,0,0,0,0,0,0,0,0l7.54,63.36,2.85-72.05c5.98-4.7,12.2-9.1,18.63-13.2l-3.2,80.92,17.86-89.52c6.75-3.63,13.69-6.94,20.82-9.91l-19.33,96.88,38.13-103.76c7.27-2.31,14.69-4.27,22.25-5.86l-41.25,112.24,64.01-115.86c7.47-.81,15.06-1.26,22.73-1.35l-68.42,123.85,94.26-122.72c7.51.75,14.92,1.86,22.2,3.31l-99.29,129.27,126.68-122.05c7.02,2.32,13.9,4.97,20.61,7.92l-131.57,126.76,158.62-112.66c6.22,3.78,12.24,7.85,18.05,12.19l-162.95,115.74,187.59-94.54c5.12,5.06,10,10.36,14.63,15.88l-191.41,96.47,204.94-66.47,6.52,20.12-204.82,66.43,212.67-33.83,3.38,21.27-215.02,34.21h217.72Zm-429.91-62.61l-1.52-1.7c-.04.11-.08.23-.12.34l1.64,1.36Zm10.31-12.75l-4.71-7.19c-.19.43-.38.86-.56,1.29,0,0,0,0,0,0,0,0,0,0,0,0l5.27,5.9Zm12.46-11.21l-7.25-15.85s.02-.04.03-.06c-.01.02-.02.04-.03.06-.48.86-.96,1.73-1.44,2.6,0,0,0,0,0,0,0,0,0,0,0,0l8.68,13.25Zm14.68-8.66l-8.14-28.85c-1.03,1.44-2.05,2.9-3.06,4.37l11.19,24.49Zm16.68-4.73l-5.65-47.5c-2.01,2.15-3.97,4.33-5.9,6.55l11.55,40.95Zm7.04,281.91l9.01-75.73c-3.51-.27-6.97-.74-10.37-1.38l-8.08,67.93c-4.05-4.16-7.94-8.48-11.67-12.93l15.75-55.84c-3.55-.83-7.02-1.86-10.4-3.07l-13.65,48.41c-2.55-3.42-5.01-6.92-7.36-10.48,0,0,0,0,0,0l17.88-39.11c-3.49-1.39-6.89-2.98-10.16-4.77l-14.82,32.43c-1.56-2.68-3.07-5.4-4.52-8.15l16.84-25.69c-3.35-1.96-6.57-4.11-9.65-6.45l-13.13,20.04c-.92-2.02-1.82-4.06-2.68-6.11l13.83-15.47c-3.12-2.5-6.08-5.2-8.87-8.07l-9.82,10.99c-.51-1.44-1.01-2.89-1.5-4.35l9.86-8.18c-2.8-3.02-5.42-6.22-7.82-9.59l-5.9,4.89c-.26-.95-.51-1.91-.75-2.86l5.68-3.42c-2.4-3.5-4.57-7.16-6.5-10.97l-2.12,1.28c-.11-.55-.21-1.1-.31-1.66l1.86-.77c-1.18-2.42-2.26-4.9-3.24-7.44h0c-1.04-2.68-1.96-5.42-2.75-8.21h0c-1.35-4.74-2.34-9.64-2.94-14.65-.45-3.78-.69-7.62-.69-11.52s.25-7.86.71-11.69H0v23.21h209.61L2.61,397.85l3.58,22.52,204.76-32.57L13.74,451.75l6.91,21.29,197.38-64.02-185.29,93.38,9.89,19.62,186.82-94.16-170.55,121.13,12.48,17.58,172.57-122.57-152.42,146.85,14.67,15.23,154.41-148.77-130.6,170.04,16.44,12.63,132.38-172.35-105.09,190.22,17.79,9.83,106.1-192.05s0,0,0,0c.05.07.09.14.14.22,0,0,0,0,0-.01l-75.64,205.81,18.68,6.87,70.84-192.76c.82,1.05,1.65,2.1,2.49,3.14,0,0,0,0,0,0,0,0,0,0,0,0l-39.72,199.07,19.11,3.81,36.86-184.75c2.14,2.15,4.32,4.26,6.54,6.32l-7.23,182.7,19.06.75,6.64-167.97c-6.04-4.55-11.85-9.41-17.42-14.52Z" />  <path fill="#e0ffe0" opacity="0.13" transform="scale(0.08) rotate(270) translate(3475, 4375)" d="m448.11,372.02c.43-2.16.79-4.35,1.07-6.56l253.71,40.36-1.04,6.56-253.73-40.36Zm240.37,93.72l2.17-6.68-244.41-79.27c-.65,2.26-1.38,4.49-2.19,6.68l244.43,79.28Zm-25.42,47.6c1.77-1.86,3.5-3.75,5.2-5.67l-227.03-114.42c-1.03,2.25-2.16,4.45-3.36,6.6l225.18,113.49Zm-41.85,34.74c2.33-1.51,4.62-3.06,6.89-4.66l-193.82-137.66c-1.43,2.17-2.94,4.29-4.54,6.33l191.46,135.98Zm-201.38-125.11l154.24,148.6c2.83-1.03,5.63-2.11,8.41-3.25l-156.93-151.2c-1.82,2.03-3.73,3.98-5.71,5.84Zm104.79,160.57c3.24-.41,6.46-.91,9.67-1.46l-119.08-155.03c-2.2,1.81-4.48,3.53-6.83,5.14l116.24,151.34Zm-48.78,1.09c3.49.28,7.01.49,10.54.61l-82.84-149.95c-2.55,1.53-5.17,2.95-7.86,4.24l80.16,145.1Zm-45.49-8.33c3.63,1.05,7.29,2.01,10.98,2.88l-50.53-137.49c-2.86,1.18-5.79,2.22-8.78,3.12l48.32,131.48Zm-40.35-15.91c3.59,1.82,7.23,3.55,10.92,5.19l-23.83-119.41c-3.12.76-6.3,1.36-9.53,1.81l22.43,112.42Zm-37.73-111.55l3.57,90.3c3.39,2.54,6.85,4.98,10.38,7.34l-3.87-97.93c-2.6.21-5.22.33-7.88.33-.73,0-1.47-.01-2.2-.03Zm31.06-299.07L400.79,3.05l-10.73-1.28-18.43,154.88c3.69-2.32,7.46-4.54,11.29-6.65.14-.08.28-.16.42-.24Zm31.69-14.42c1.88-.69,3.78-1.35,5.69-1.99.25-.08.49-.18.74-.26l33.39-118.39-10.8-3.05-35.6,126.22c.23-.09.46-.18.69-.27,1.73-.69,3.47-1.36,5.22-2.01.22-.08.45-.17.67-.25Zm49.83-12.2l40.65-88.91-10.58-4.84-43.88,95.97c.21-.04.42-.08.63-.12.57-.11,1.14-.21,1.71-.32,3.79-.69,7.61-1.3,11.47-1.79Zm40.42-1.7c.87.04,1.73.08,2.59.13,1.39.07,2.77.16,4.15.26l39.93-60.93-10.08-6.6-43.87,66.95c2.07.03,4.13.08,6.19.16.36.01.72.03,1.08.04Zm88.24-27.47l-9.29-8.31-37.05,41.44c3.46.8,6.88,1.68,10.28,2.63,1.09.3,2.17.62,3.25.93l32.81-36.69Zm8.52,53.37c2.04,1.06,4.06,2.16,6.07,3.28l21.5-17.83-8.22-9.91-25.67,21.28c.44.21.87.44,1.31.66,1.56.76,3.11,1.54,4.65,2.34.12.06.24.12.36.18Zm49.24,34.41l8.33-5.02-6.86-11.38-12.09,7.29c3.36,2.71,6.64,5.52,9.84,8.42.26.23.53.46.79.69Zm-11.83,353.19l12.55,7.56,8.35-13.86-7.97-4.81c-4.17,3.85-8.49,7.56-12.93,11.1Zm-45.59,28.39l26.34,21.84,10.59-12.78-20.95-17.37c-5.2,2.97-10.54,5.74-15.98,8.31Zm-49.23,16.74l37.91,42.4,12.68-11.34-32.09-35.9c-6.06,1.86-12.23,3.47-18.49,4.84Zm-49.68,5.35s-.09,0-.13,0l44.81,68.38,14.57-9.55-39.13-59.71c-6.63.57-13.34.88-20.13.88Zm-47.65-4.91l44.8,98,16.22-7.42-39.86-87.19c-7.16-.81-14.22-1.94-21.16-3.39Zm-42.98-13.46l36.35,128.87,17.57-4.95-32.76-116.14c-7.21-2.26-14.27-4.86-21.16-7.78Zm-36.97-19.84l18.81,158.1,18.53-2.21-17.13-143.99c-6.95-3.64-13.7-7.61-20.21-11.91Zm-102.61-226.42L18.29,240.85l-2.19,6.74,246.45,79.93c.64-2.28,1.37-4.53,2.17-6.75Zm-3.93,14.14L4.92,294.22l-1.05,6.59,255.87,40.7c.28-2.22.63-4.42,1.06-6.59Zm445.97,7.43v21.91h-257.45c.4-3.57.62-7.19.62-10.87s-.22-7.42-.64-11.04h0c-.59-5.14-1.59-10.15-2.96-15.01-1.34-4.73-3.04-9.31-5.05-13.71-2.01-4.37-4.33-8.57-6.95-12.55-2.63-4-5.54-7.79-8.72-11.34-3.19-3.56-6.64-6.88-10.32-9.93h0c-3.67-3.04-7.57-5.8-11.68-8.27-4.06-2.44-8.31-4.59-12.73-6.41-4.36-1.8-8.88-3.28-13.53-4.43-4.61-1.13-9.35-1.93-14.19-2.37-2.86-.26-5.76-.4-8.69-.4-2.09,0-4.17.07-6.22.21-5.17.33-10.22,1.07-15.13,2.19-4.77,1.09-9.4,2.54-13.87,4.31-4.42,1.75-8.67,3.83-12.74,6.2-4.07,2.37-7.95,5.03-11.61,7.96h0c-3.67,2.94-7.13,6.14-10.33,9.58h0c-3.2,3.44-6.15,7.11-8.81,10.99h0c-2.65,3.85-5.02,7.9-7.09,12.13-1.21,2.46-2.31,4.99-3.3,7.57h0c.26-1.77.54-3.54.84-5.29,0,0,0,0,0,0,0,0,0,0,0,0L36,197.75l3.38-6.7,228.28,115.05s0,.03,0,.05c.53-2.57,1.12-5.12,1.73-7.65-.02.06-.05.12-.07.19L62.86,152.05l4.58-6.45,204.01,144.9s0,0,0,.01c.75-2.69,1.56-5.35,2.41-8L95.99,111.14l5.78-6,175.06,168.66c1.08-2.96,2.22-5.9,3.42-8.81L134.77,75.6l6.94-5.32,142.53,185.57c1.54-3.33,3.16-6.62,4.85-9.86L178.65,46.07l8.01-4.43,107.67,194.9c2.21-3.8,4.53-7.52,6.95-11.18L226.99,23.2l8.98-3.3,72,195.91c3.22-4.37,6.59-8.63,10.1-12.76L279.09,7.74l9.79-1.95,37.51,187.99c4.71-4.97,9.63-9.74,14.75-14.28L334.07.41l10.39-.41,6.77,171.06c-3.38,2.67-6.68,5.43-9.9,8.27,0,0,0,0,0,0,0,0,0,0,0,0l7.54,63.36,2.85-72.05c5.98-4.7,12.2-9.1,18.63-13.2l-3.2,80.92,17.86-89.52c6.75-3.63,13.69-6.94,20.82-9.91l-19.33,96.88,38.13-103.76c7.27-2.31,14.69-4.27,22.25-5.86l-41.25,112.24,64.01-115.86c7.47-.81,15.06-1.26,22.73-1.35l-68.42,123.85,94.26-122.72c7.51.75,14.92,1.86,22.2,3.31l-99.29,129.27,126.68-122.05c7.02,2.32,13.9,4.97,20.61,7.92l-131.57,126.76,158.62-112.66c6.22,3.78,12.24,7.85,18.05,12.19l-162.95,115.74,187.59-94.54c5.12,5.06,10,10.36,14.63,15.88l-191.41,96.47,204.94-66.47,6.52,20.12-204.82,66.43,212.67-33.83,3.38,21.27-215.02,34.21h217.72Zm-429.91-62.61l-1.52-1.7c-.04.11-.08.23-.12.34l1.64,1.36Zm10.31-12.75l-4.71-7.19c-.19.43-.38.86-.56,1.29,0,0,0,0,0,0,0,0,0,0,0,0l5.27,5.9Zm12.46-11.21l-7.25-15.85s.02-.04.03-.06c-.01.02-.02.04-.03.06-.48.86-.96,1.73-1.44,2.6,0,0,0,0,0,0,0,0,0,0,0,0l8.68,13.25Zm14.68-8.66l-8.14-28.85c-1.03,1.44-2.05,2.9-3.06,4.37l11.19,24.49Zm16.68-4.73l-5.65-47.5c-2.01,2.15-3.97,4.33-5.9,6.55l11.55,40.95Zm7.04,281.91l9.01-75.73c-3.51-.27-6.97-.74-10.37-1.38l-8.08,67.93c-4.05-4.16-7.94-8.48-11.67-12.93l15.75-55.84c-3.55-.83-7.02-1.86-10.4-3.07l-13.65,48.41c-2.55-3.42-5.01-6.92-7.36-10.48,0,0,0,0,0,0l17.88-39.11c-3.49-1.39-6.89-2.98-10.16-4.77l-14.82,32.43c-1.56-2.68-3.07-5.4-4.52-8.15l16.84-25.69c-3.35-1.96-6.57-4.11-9.65-6.45l-13.13,20.04c-.92-2.02-1.82-4.06-2.68-6.11l13.83-15.47c-3.12-2.5-6.08-5.2-8.87-8.07l-9.82,10.99c-.51-1.44-1.01-2.89-1.5-4.35l9.86-8.18c-2.8-3.02-5.42-6.22-7.82-9.59l-5.9,4.89c-.26-.95-.51-1.91-.75-2.86l5.68-3.42c-2.4-3.5-4.57-7.16-6.5-10.97l-2.12,1.28c-.11-.55-.21-1.1-.31-1.66l1.86-.77c-1.18-2.42-2.26-4.9-3.24-7.44h0c-1.04-2.68-1.96-5.42-2.75-8.21h0c-1.35-4.74-2.34-9.64-2.94-14.65-.45-3.78-.69-7.62-.69-11.52s.25-7.86.71-11.69H0v23.21h209.61L2.61,397.85l3.58,22.52,204.76-32.57L13.74,451.75l6.91,21.29,197.38-64.02-185.29,93.38,9.89,19.62,186.82-94.16-170.55,121.13,12.48,17.58,172.57-122.57-152.42,146.85,14.67,15.23,154.41-148.77-130.6,170.04,16.44,12.63,132.38-172.35-105.09,190.22,17.79,9.83,106.1-192.05s0,0,0,0c.05.07.09.14.14.22,0,0,0,0,0-.01l-75.64,205.81,18.68,6.87,70.84-192.76c.82,1.05,1.65,2.1,2.49,3.14,0,0,0,0,0,0,0,0,0,0,0,0l-39.72,199.07,19.11,3.81,36.86-184.75c2.14,2.15,4.32,4.26,6.54,6.32l-7.23,182.7,19.06.75,6.64-167.97c-6.04-4.55-11.85-9.41-17.42-14.52Z" /> </svg>